<svg xmlns="http://www.w3.org/2000/svg" viewBox="0 0 512 512">
  <!-- Green background -->
  <rect width="512" height="512" rx="96" fill="#22c55e"/>
  <!-- Goat head - stylized flat design -->
  <!-- Body/Head oval -->
  <ellipse cx="256" cy="290" rx="130" ry="110" fill="white"/>
  <!-- Face circle -->
  <ellipse cx="256" cy="260" rx="100" ry="95" fill="white"/>
  <!-- Left horn -->
  <path d="M185 185 Q165 130 190 100 Q200 140 210 170 Z" fill="white"/>
  <!-- Right horn -->
  <path d="M327 185 Q347 130 322 100 Q312 140 302 170 Z" fill="white"/>
  <!-- Left ear -->
  <ellipse cx="160" cy="230" rx="28" ry="18" fill="white" transform="rotate(-20,160,230)"/>
  <!-- Right ear -->
  <ellipse cx="352" cy="230" rx="28" ry="18" fill="white" transform="rotate(20,352,230)"/>
  <!-- Eyes -->
  <ellipse cx="218" cy="250" rx="14" ry="10" fill="#166534"/>
  <ellipse cx="294" cy="250" rx="14" ry="10" fill="#166534"/>
  <!-- Pupils -->
  <ellipse cx="218" cy="251" rx="7" ry="5" fill="#14532d"/>
  <ellipse cx="294" cy="251" rx="7" ry="5" fill="#14532d"/>
  <!-- Nose -->
  <ellipse cx="256" cy="295" rx="28" ry="18" fill="#bbf7d0"/>
  <!-- Nostrils -->
  <ellipse cx="244" cy="296" rx="5" ry="6" fill="#166534"/>
  <ellipse cx="268" cy="296" rx="5" ry="6" fill="#166534"/>
  <!-- Beard -->
  <ellipse cx="256" cy="368" rx="22" ry="32" fill="white"/>
  <ellipse cx="235" cy="360" rx="14" ry="26" fill="white"/>
  <ellipse cx="277" cy="360" rx="14" ry="26" fill="white"/>
</svg>